<svg width="800" height="247" viewBox="0 0 800 247" fill="none" xmlns="http://www.w3.org/2000/svg">
<path d="M219.821 176.8C215.768 176.8 212.888 174.667 211.181 170.4C209.581 166.133 208.781 159.307 208.781 149.92C208.781 136.053 210.755 122.88 214.701 110.4C215.661 107.307 217.208 105.067 219.341 103.68C221.581 102.187 224.675 101.44 228.621 101.44C230.755 101.44 232.248 101.707 233.101 102.24C233.955 102.773 234.381 103.787 234.381 105.28C234.381 106.987 233.581 110.827 231.981 116.8C230.915 121.067 230.061 124.8 229.421 128C228.781 131.093 228.248 134.987 227.821 139.68C230.701 131.36 234.115 124.32 238.061 118.56C242.115 112.8 246.221 108.533 250.381 105.76C254.648 102.88 258.648 101.44 262.381 101.44C266.115 101.44 268.728 102.293 270.221 104C271.821 105.707 272.621 108.32 272.621 111.84C272.621 115.253 271.608 121.44 269.581 130.4C268.728 134.24 268.141 137.12 267.821 139.04C273.155 125.92 279.075 116.373 285.581 110.4C292.088 104.427 298.168 101.44 303.821 101.44C310.755 101.44 314.221 104.907 314.221 111.84C314.221 116 313.048 123.52 310.701 134.4C308.675 143.68 307.661 149.813 307.661 152.8C307.661 157.067 309.208 159.2 312.301 159.2C314.435 159.2 316.941 157.92 319.821 155.36C322.808 152.693 326.755 148.427 331.661 142.56C332.941 141.067 334.381 140.32 335.981 140.32C337.368 140.32 338.435 140.96 339.181 142.24C340.035 143.52 340.461 145.28 340.461 147.52C340.461 151.787 339.448 155.093 337.421 157.44C332.835 163.093 327.875 167.733 322.541 171.36C317.315 174.987 311.341 176.8 304.621 176.8C299.181 176.8 295.075 175.253 292.301 172.16C289.528 168.96 288.141 164.373 288.141 158.4C288.141 155.413 288.888 150.08 290.381 142.4C291.768 135.68 292.461 131.04 292.461 128.48C292.461 126.773 291.875 125.92 290.701 125.92C289.315 125.92 287.341 127.733 284.781 131.36C282.221 134.88 279.661 139.573 277.101 145.44C274.541 151.307 272.461 157.493 270.861 164C269.688 169.12 268.301 172.533 266.701 174.24C265.208 175.947 262.755 176.8 259.341 176.8C255.821 176.8 253.155 175.147 251.341 171.84C249.635 168.427 248.781 164.32 248.781 159.52C248.781 155.467 249.315 149.6 250.381 141.92C251.235 135.093 251.661 130.613 251.661 128.48C251.661 126.773 251.075 125.92 249.901 125.92C248.301 125.92 246.275 127.84 243.821 131.68C241.368 135.52 238.968 140.427 236.621 146.4C234.381 152.373 232.568 158.24 231.181 164C230.008 169.013 228.621 172.427 227.021 174.24C225.528 175.947 223.128 176.8 219.821 176.8ZM347.204 176.8C340.59 176.8 335.31 174.4 331.364 169.6C327.417 164.8 325.444 158.507 325.444 150.72C325.444 142.187 327.417 134.133 331.364 126.56C335.31 118.88 340.537 112.747 347.044 108.16C353.657 103.467 360.644 101.12 368.004 101.12C370.35 101.12 371.897 101.6 372.644 102.56C373.497 103.413 374.19 105.013 374.724 107.36C376.964 106.933 379.31 106.72 381.764 106.72C386.99 106.72 389.604 108.587 389.604 112.32C389.604 114.56 388.804 119.893 387.204 128.32C384.75 140.587 383.524 149.12 383.524 153.92C383.524 155.52 383.897 156.8 384.644 157.76C385.497 158.72 386.564 159.2 387.844 159.2C389.87 159.2 392.324 157.92 395.204 155.36C398.084 152.693 401.977 148.427 406.884 142.56C408.164 141.067 409.604 140.32 411.204 140.32C412.59 140.32 413.657 140.96 414.404 142.24C415.257 143.52 415.684 145.28 415.684 147.52C415.684 151.787 414.67 155.093 412.644 157.44C408.27 162.88 403.63 167.467 398.724 171.2C393.817 174.933 389.07 176.8 384.484 176.8C380.964 176.8 377.71 175.627 374.724 173.28C371.844 170.827 369.657 167.52 368.164 163.36C362.617 172.32 355.63 176.8 347.204 176.8ZM352.964 160.64C355.31 160.64 357.55 159.253 359.684 156.48C361.817 153.707 363.364 150.027 364.324 145.44L370.244 116C365.764 116.107 361.604 117.813 357.764 121.12C354.03 124.32 351.044 128.587 348.804 133.92C346.564 139.253 345.444 144.907 345.444 150.88C345.444 154.187 346.084 156.64 347.364 158.24C348.75 159.84 350.617 160.64 352.964 160.64ZM433.24 176.8C422.787 176.8 414.627 173.867 408.76 168C403 162.027 400.12 154.187 400.12 144.48C400.12 135.84 401.827 128.267 405.24 121.76C408.653 115.253 413.08 110.24 418.52 106.72C423.96 103.2 429.667 101.44 435.64 101.44C441.507 101.44 446.04 103.2 449.24 106.72C452.547 110.133 454.2 114.56 454.2 120C454.2 124.48 453.187 128.267 451.16 131.36C449.24 134.453 446.68 136 443.48 136C441.453 136 439.8 135.52 438.52 134.56C437.347 133.6 436.76 132.267 436.76 130.56C436.76 129.813 436.867 128.96 437.08 128C437.293 127.04 437.453 126.347 437.56 125.92C438.093 124.32 438.36 122.827 438.36 121.44C438.36 120.053 437.987 118.987 437.24 118.24C436.6 117.493 435.64 117.12 434.36 117.12C431.907 117.12 429.613 118.24 427.48 120.48C425.347 122.613 423.64 125.547 422.36 129.28C421.08 133.013 420.44 137.12 420.44 141.6C420.44 153.973 425.827 160.16 436.6 160.16C440.973 160.16 445.667 158.72 450.68 155.84C455.8 152.853 460.813 148.427 465.72 142.56C467 141.067 468.44 140.32 470.04 140.32C471.427 140.32 472.493 140.96 473.24 142.24C474.093 143.52 474.52 145.28 474.52 147.52C474.52 151.573 473.507 154.88 471.48 157.44C466.467 163.627 460.44 168.427 453.4 171.84C446.467 175.147 439.747 176.8 433.24 176.8ZM472.946 176.8C468.893 176.8 466.013 174.667 464.306 170.4C462.706 166.133 461.906 159.307 461.906 149.92C461.906 136.053 463.88 122.88 467.826 110.4C468.786 107.307 470.333 105.067 472.466 103.68C474.706 102.187 477.8 101.44 481.746 101.44C483.88 101.44 485.373 101.707 486.226 102.24C487.08 102.773 487.506 103.787 487.506 105.28C487.506 106.987 486.706 110.827 485.106 116.8C484.04 121.067 483.186 124.8 482.546 128C481.906 131.2 481.373 135.147 480.946 139.84C484.466 130.667 488.413 123.2 492.786 117.44C497.16 111.68 501.426 107.573 505.586 105.12C509.853 102.667 513.746 101.44 517.266 101.44C524.2 101.44 527.666 104.907 527.666 111.84C527.666 113.227 527.186 116.587 526.226 121.92C525.373 126.187 524.946 128.853 524.946 129.92C524.946 133.653 526.28 135.52 528.946 135.52C531.933 135.52 535.773 133.173 540.466 128.48C541.853 127.093 543.293 126.4 544.786 126.4C546.173 126.4 547.24 127.04 547.986 128.32C548.84 129.493 549.266 131.093 549.266 133.12C549.266 137.067 548.2 140.16 546.066 142.4C543.08 145.493 539.56 148.16 535.506 150.4C531.56 152.533 527.346 153.6 522.866 153.6C517.213 153.6 512.893 152.16 509.906 149.28C507.026 146.4 505.586 142.507 505.586 137.6C505.586 136 505.746 134.4 506.066 132.8C506.28 130.667 506.386 129.227 506.386 128.48C506.386 126.773 505.8 125.92 504.626 125.92C503.026 125.92 500.893 127.733 498.226 131.36C495.666 134.88 493.106 139.573 490.546 145.44C487.986 151.307 485.906 157.493 484.306 164C483.133 169.013 481.746 172.427 480.146 174.24C478.653 175.947 476.253 176.8 472.946 176.8ZM561.439 176.8C555.145 176.8 549.759 175.253 545.279 172.16C540.905 168.96 537.599 164.8 535.359 159.68C533.119 154.56 531.999 149.067 531.999 143.2C531.999 135.093 533.492 127.893 536.479 121.6C539.572 115.2 543.732 110.24 548.959 106.72C554.185 103.093 560.052 101.28 566.559 101.28C572.852 101.28 578.239 102.88 582.719 106.08C587.199 109.173 590.559 113.28 592.799 118.4C595.039 123.52 596.159 129.013 596.159 134.88C596.159 142.987 594.612 150.24 591.519 156.64C588.425 162.933 584.212 167.893 578.879 171.52C573.652 175.04 567.839 176.8 561.439 176.8ZM563.199 159.52C566.825 159.52 569.865 157.547 572.319 153.6C574.879 149.653 576.159 143.893 576.159 136.32C576.159 130.453 575.092 126.027 572.959 123.04C570.825 120.053 568.265 118.56 565.279 118.56C561.439 118.56 558.239 120.533 555.679 124.48C553.225 128.32 551.999 134.08 551.999 141.76C551.999 147.84 553.065 152.32 555.199 155.2C557.332 158.08 559.999 159.52 563.199 159.52Z" fill="white"/>
<path d="M302.562 224.972C302.562 224.103 302.211 223.404 301.508 222.877C300.814 222.35 299.765 221.939 298.358 221.646C296.952 221.344 295.858 221.002 295.077 220.621C294.306 220.23 293.729 219.757 293.349 219.2C292.978 218.644 292.792 217.97 292.792 217.179C292.792 215.929 293.314 214.898 294.359 214.088C295.404 213.268 296.742 212.857 298.373 212.857C300.141 212.857 301.557 213.297 302.621 214.176C303.695 215.045 304.232 216.183 304.232 217.589H302.475C302.475 216.661 302.084 215.89 301.303 215.274C300.531 214.659 299.555 214.352 298.373 214.352C297.221 214.352 296.293 214.61 295.59 215.128C294.896 215.636 294.55 216.3 294.55 217.12C294.55 217.911 294.838 218.526 295.414 218.966C296 219.396 297.06 219.791 298.593 220.152C300.136 220.514 301.288 220.899 302.05 221.31C302.821 221.72 303.393 222.213 303.764 222.789C304.135 223.365 304.32 224.063 304.32 224.884C304.32 226.222 303.778 227.291 302.694 228.092C301.62 228.893 300.214 229.293 298.476 229.293C296.63 229.293 295.131 228.849 293.979 227.96C292.836 227.062 292.265 225.929 292.265 224.562H294.022C294.091 225.587 294.521 226.388 295.312 226.964C296.112 227.53 297.167 227.813 298.476 227.813C299.696 227.813 300.683 227.545 301.435 227.008C302.187 226.471 302.562 225.792 302.562 224.972ZM309.872 213.15L309.931 215.729C310.517 214.771 311.249 214.054 312.128 213.575C313.007 213.097 313.983 212.857 315.058 212.857C317.558 212.857 319.145 213.883 319.818 215.934C320.385 214.947 321.142 214.19 322.089 213.663C323.036 213.126 324.081 212.857 325.224 212.857C328.622 212.857 330.355 214.713 330.424 218.424V229H328.666V218.556C328.656 217.14 328.349 216.09 327.743 215.406C327.147 214.723 326.171 214.381 324.813 214.381C323.554 214.4 322.489 214.811 321.62 215.611C320.751 216.402 320.268 217.369 320.17 218.512V229H318.412V218.424C318.402 217.066 318.08 216.056 317.445 215.392C316.82 214.718 315.854 214.381 314.545 214.381C313.441 214.381 312.494 214.698 311.703 215.333C310.912 215.958 310.326 216.891 309.945 218.131V229H308.188V213.15H309.872ZM344.882 229C344.706 228.502 344.594 227.765 344.545 226.788C343.93 227.589 343.144 228.209 342.187 228.648C341.239 229.078 340.233 229.293 339.169 229.293C337.646 229.293 336.41 228.868 335.463 228.019C334.525 227.169 334.057 226.095 334.057 224.796C334.057 223.253 334.696 222.032 335.976 221.134C337.265 220.235 339.057 219.786 341.352 219.786H344.53V217.984C344.53 216.852 344.179 215.963 343.476 215.318C342.782 214.664 341.767 214.337 340.429 214.337C339.208 214.337 338.197 214.649 337.396 215.274C336.596 215.899 336.195 216.651 336.195 217.53L334.438 217.516C334.438 216.256 335.023 215.167 336.195 214.249C337.367 213.321 338.808 212.857 340.517 212.857C342.284 212.857 343.676 213.302 344.691 214.19C345.717 215.069 346.244 216.3 346.273 217.882V225.382C346.273 226.915 346.435 228.062 346.757 228.824V229H344.882ZM339.374 227.74C340.546 227.74 341.591 227.457 342.509 226.891C343.437 226.324 344.11 225.567 344.53 224.62V221.134H341.396C339.647 221.153 338.28 221.476 337.294 222.101C336.308 222.716 335.814 223.565 335.814 224.649C335.814 225.538 336.142 226.275 336.796 226.861C337.46 227.447 338.319 227.74 339.374 227.74ZM358.285 214.645C357.914 214.576 357.519 214.542 357.099 214.542C356.005 214.542 355.077 214.85 354.315 215.465C353.563 216.07 353.026 216.954 352.704 218.116V229H350.961V213.15H352.675L352.704 215.67C353.632 213.795 355.121 212.857 357.172 212.857C357.66 212.857 358.046 212.921 358.329 213.048L358.285 214.645ZM364.525 209.093V213.15H367.807V214.586H364.525V225.147C364.525 226.026 364.682 226.681 364.994 227.11C365.316 227.54 365.849 227.755 366.591 227.755C366.884 227.755 367.357 227.706 368.012 227.608L368.085 229.044C367.626 229.21 367.001 229.293 366.21 229.293C365.009 229.293 364.135 228.946 363.588 228.253C363.041 227.55 362.768 226.52 362.768 225.162V214.586H359.853V213.15H362.768V209.093H364.525ZM377.577 229.293C376.229 229.293 375.009 228.961 373.915 228.297C372.831 227.633 371.986 226.71 371.381 225.528C370.775 224.337 370.473 223.004 370.473 221.529V220.899C370.473 219.376 370.766 218.004 371.352 216.783C371.947 215.562 372.772 214.605 373.827 213.912C374.882 213.209 376.024 212.857 377.255 212.857C379.179 212.857 380.702 213.517 381.825 214.835C382.958 216.144 383.524 217.936 383.524 220.211V221.192H372.216V221.529C372.216 223.326 372.729 224.825 373.754 226.026C374.789 227.218 376.088 227.813 377.65 227.813C378.588 227.813 379.413 227.643 380.126 227.301C380.849 226.959 381.503 226.412 382.089 225.66L383.188 226.495C381.898 228.36 380.028 229.293 377.577 229.293ZM377.255 214.352C375.937 214.352 374.823 214.835 373.915 215.802C373.017 216.769 372.47 218.067 372.274 219.698H381.781V219.508C381.732 217.984 381.298 216.744 380.478 215.787C379.657 214.83 378.583 214.352 377.255 214.352ZM394.262 214.645C393.891 214.576 393.495 214.542 393.075 214.542C391.981 214.542 391.054 214.85 390.292 215.465C389.54 216.07 389.003 216.954 388.681 218.116V229H386.938V213.15H388.651L388.681 215.67C389.608 213.795 391.098 212.857 393.148 212.857C393.637 212.857 394.022 212.921 394.306 213.048L394.262 214.645ZM406.01 213.15L406.068 215.86C406.664 214.884 407.406 214.142 408.295 213.634C409.184 213.116 410.165 212.857 411.239 212.857C412.938 212.857 414.203 213.336 415.033 214.293C415.863 215.25 416.283 216.686 416.293 218.6V229H414.55V218.585C414.54 217.169 414.237 216.114 413.642 215.421C413.056 214.728 412.113 214.381 410.814 214.381C409.73 214.381 408.769 214.723 407.929 215.406C407.099 216.08 406.483 216.993 406.083 218.146V229H404.34V213.15H406.01ZM431.029 226.993C429.975 228.526 428.29 229.293 425.976 229.293C424.286 229.293 423.002 228.805 422.123 227.828C421.244 226.842 420.795 225.387 420.775 223.463V213.15H422.519V223.243C422.519 226.261 423.739 227.77 426.181 227.77C428.72 227.77 430.326 226.72 431 224.62V213.15H432.758V229H431.059L431.029 226.993ZM440.053 209.093V213.15H443.334V214.586H440.053V225.147C440.053 226.026 440.209 226.681 440.521 227.11C440.844 227.54 441.376 227.755 442.118 227.755C442.411 227.755 442.885 227.706 443.539 227.608L443.612 229.044C443.153 229.21 442.528 229.293 441.737 229.293C440.536 229.293 439.662 228.946 439.115 228.253C438.568 227.55 438.295 226.52 438.295 225.162V214.586H435.38V213.15H438.295V209.093H440.053ZM454.291 214.645C453.92 214.576 453.524 214.542 453.104 214.542C452.011 214.542 451.083 214.85 450.321 215.465C449.569 216.07 449.032 216.954 448.71 218.116V229H446.967V213.15H448.681L448.71 215.67C449.638 213.795 451.127 212.857 453.178 212.857C453.666 212.857 454.052 212.921 454.335 213.048L454.291 214.645ZM459.037 229H457.279V213.15H459.037V229ZM456.972 208.565C456.972 208.233 457.079 207.955 457.294 207.73C457.509 207.496 457.802 207.379 458.173 207.379C458.544 207.379 458.837 207.496 459.052 207.73C459.276 207.955 459.389 208.233 459.389 208.565C459.389 208.897 459.276 209.176 459.052 209.4C458.837 209.625 458.544 209.737 458.173 209.737C457.802 209.737 457.509 209.625 457.294 209.4C457.079 209.176 456.972 208.897 456.972 208.565ZM466.537 209.093V213.15H469.818V214.586H466.537V225.147C466.537 226.026 466.693 226.681 467.006 227.11C467.328 227.54 467.86 227.755 468.603 227.755C468.896 227.755 469.369 227.706 470.023 227.608L470.097 229.044C469.638 229.21 469.013 229.293 468.222 229.293C467.021 229.293 466.146 228.946 465.6 228.253C465.053 227.55 464.779 226.52 464.779 225.162V214.586H461.864V213.15H464.779V209.093H466.537ZM475.414 229H473.656V213.15H475.414V229ZM473.349 208.565C473.349 208.233 473.456 207.955 473.671 207.73C473.886 207.496 474.179 207.379 474.55 207.379C474.921 207.379 475.214 207.496 475.429 207.73C475.653 207.955 475.766 208.233 475.766 208.565C475.766 208.897 475.653 209.176 475.429 209.4C475.214 209.625 474.921 209.737 474.55 209.737C474.179 209.737 473.886 209.625 473.671 209.4C473.456 209.176 473.349 208.897 473.349 208.565ZM479.223 220.841C479.223 219.317 479.516 217.945 480.102 216.725C480.697 215.504 481.532 214.557 482.606 213.883C483.69 213.199 484.916 212.857 486.283 212.857C488.393 212.857 490.102 213.6 491.41 215.084C492.719 216.559 493.373 218.517 493.373 220.958V221.324C493.373 222.857 493.075 224.239 492.479 225.47C491.894 226.69 491.063 227.633 489.989 228.297C488.915 228.961 487.689 229.293 486.312 229.293C484.213 229.293 482.504 228.556 481.186 227.081C479.877 225.597 479.223 223.634 479.223 221.192V220.841ZM480.98 221.324C480.98 223.219 481.469 224.776 482.445 225.997C483.432 227.208 484.721 227.813 486.312 227.813C487.895 227.813 489.174 227.208 490.15 225.997C491.137 224.776 491.63 223.17 491.63 221.178V220.841C491.63 219.63 491.405 218.521 490.956 217.516C490.507 216.51 489.877 215.733 489.066 215.187C488.256 214.63 487.328 214.352 486.283 214.352C484.721 214.352 483.446 214.967 482.46 216.197C481.474 217.418 480.98 219.02 480.98 221.002V221.324ZM498.676 213.15L498.734 215.86C499.33 214.884 500.072 214.142 500.961 213.634C501.85 213.116 502.831 212.857 503.905 212.857C505.604 212.857 506.869 213.336 507.699 214.293C508.529 215.25 508.949 216.686 508.959 218.6V229H507.216V218.585C507.206 217.169 506.903 216.114 506.308 215.421C505.722 214.728 504.779 214.381 503.48 214.381C502.396 214.381 501.435 214.723 500.595 215.406C499.765 216.08 499.149 216.993 498.749 218.146V229H497.006V213.15H498.676Z" fill="white"/>
<path d="M579.596 143.227L579.578 143.392L579.563 143.558C579.413 145.272 578.29 149.454 575.28 153.235C572.681 156.498 568.591 159.624 561.539 160.555C556.243 160.744 550.839 157.337 549.199 148.865C548.34 144.424 548.317 140.344 548.641 137.134C548.92 134.381 549.395 132.785 549.513 132.388C549.544 132.284 549.551 132.263 549.522 132.325C551.765 127.392 553.928 123.807 556.616 121.386C558.745 119.47 561.9 117.628 567.869 117.506C569.447 117.705 572.667 118.588 575.14 121.037C577.173 123.05 581.184 128.531 579.596 143.227Z" stroke="url(#paint0_linear_130:2)" stroke-width="33"/>
<ellipse cx="563.858" cy="139.246" rx="12.3912" ry="20.6021" transform="rotate(4.17373 563.858 139.246)" fill="#339DFF"/>
<defs>
<linearGradient id="paint0_linear_130:2" x1="591.5" y1="113" x2="536.5" y2="151.5" gradientUnits="userSpaceOnUse">
<stop stop-color="#F956F2"/>
<stop offset="1" stop-color="#FECF56"/>
</linearGradient>
</defs>
</svg>
